# xmcd
#
# Track frame offsets: 
#        150
#        14635
#        32687
#        51202
#        67985
#        82750
#        97512
#        111417
#        127392
#        147867
#        166870
#        185670
#        202367
#        217172
#        235072
#        256560
#        272775
#        290037
#        309445
#        323535
#
# Disc length: 4534 seconds
#
# Revision: 5
# Processed by: cddbd v1.5.2PL0 Copyright (c) Steve Scherf et al.
# Submitted via: ExactAudioCopyFreeDBPlugin 1.0
#
DISCID=2511b414
DTITLE=Ronnie Milsap - The Essential Ronnie Milsap
DYEAR=1995
DGENRE=Country
TTITLE0=Stranger Things Have Happened
TTITLE1=She Keeps the Home Fires Burning
TTITLE2=Nobody Likes Sad Songs
TTITLE3=Any Day Now
TTITLE4=A Woman in Love
TTITLE5=Cowboys and Clowns
TTITLE6=Snap Your Fingers
TTITLE7=He Got You
TTITLE8=Where Do the Nights Go
TTITLE9=Stranger in My House
TTITLE10=All Is Fair in Love and War
TTITLE11=Happy, Happy Birthday Baby
TTITLE12=(There's) No Getting Over Me
TTITLE13=Make No Mistake, She's Mine
TTITLE14=How Do I Turn You On
TTITLE15=I Wouldn't Have Missed It for the World
TTITLE16=Why Don't You Spend the Night
TTITLE17=Lost in the Fifties Tonight (In the Still of the Night)
TTITLE18=Don't You Ever Get Tired (Of Hurting Me)
TTITLE19=Turn That Radio On
EXTD=
EXTT0=
EXTT1=
EXTT2=
EXTT3=
EXTT4=
EXTT5=
EXTT6=
EXTT7=
EXTT8=
EXTT9=
EXTT10=
EXTT11=
EXTT12=
EXTT13=
EXTT14=
EXTT15=
EXTT16=
EXTT17=
EXTT18=
EXTT19=
PLAYORDER=
